<?xml version="1.0" encoding="utf-8"?>
<!-- Svg Vector Icons : http://www.onlinewebfonts.com/icon -->
<!DOCTYPE svg PUBLIC "-//W3C//DTD SVG 1.1//EN" "http://www.w3.org/Graphics/SVG/1.1/DTD/svg11.dtd">
<svg version="1.1" xmlns="http://www.w3.org/2000/svg" xmlns:xlink="http://www.w3.org/1999/xlink" x="0px" y="0px" viewBox="0 0 1000 1000" enable-background="new 0 0 1000 1000" xml:space="preserve">
<metadata> Svg Vector Icons : http://www.onlinewebfonts.com/icon </metadata>
<g><path d="M500,10C255.3,10,63.6,138,63.6,301.4v385.9c0,1.3,0.6,1.9,0.6,3.2c0,2.5-0.6,5.7-0.6,8.2C63.6,862,255.3,990,500,990c244.7,0,436.4-128,436.4-291.4c0-2.5-0.6-5.7-0.6-8.2c0-1.3,0.6-1.9,0.6-2.5V302C936.4,138,744.7,10,500,10L500,10z M160.1,500c0-3.8,1.3-7.6,1.9-11.4c79.5,64.3,199.9,104.7,337.4,104.7c137.5,0,258.6-40.4,338-105.3c0.6,3.8,1.3,8.2,1.3,12c0,105.3-155.1,194.2-339.3,194.2C315.9,694.9,160.1,605.3,160.1,500L160.1,500z M500,107.1c184.2,0,339.3,88.9,339.3,194.2c0,105.3-155.1,194.2-339.3,194.2c-184.2,0-339.3-88.9-339.3-194.2C160.7,196,315.9,107.1,500,107.1L500,107.1z M500,892.9c-184.2,0-339.3-88.9-339.3-194.2c0-3.8,1.3-7.6,1.9-11.4c79.5,64.3,199.9,104.7,338,104.7c137.5,0,258.6-40.4,338-104.7c0.6,3.8,1.9,7.6,1.9,12C839.3,804,683.5,892.9,500,892.9L500,892.9z"/></g>
</svg>