<?xml version="1.0" encoding="utf-8"?>
<!-- Generator: Adobe Illustrator 23.0.3, SVG Export Plug-In . SVG Version: 6.00 Build 0)  -->
<svg version="1.1" id="a4bcfc6d-da0f-4ee2-80ea-b3481570728c"
	 xmlns="http://www.w3.org/2000/svg" xmlns:xlink="http://www.w3.org/1999/xlink" x="0px" y="0px" viewBox="0 0 905 685"
	 style="enable-background:new 0 0 905 685;" xml:space="preserve">
<style type="text/css">
	.st0{fill:#FA595F;}
	.st1{fill:#FFC74C;}
	.st2{fill:#85D459;}
	.st3{opacity:0.1;enable-background:new    ;}
	.st4{opacity:0.1;fill:#0A5DD3;enable-background:new    ;}
	.st5{fill:#EAECF0;}
	.st6{fill:#3A3768;}
	.st7{fill:#EFC6CD;}
	.st8{fill:#D48A9B;}
	.st9{fill:#DFE6F5;}
	.st10{opacity:0.15;enable-background:new    ;}
	.st11{fill:#4C4C56;}
	.st12{fill:#D1D9EC;}
	.st13{fill:#0A5DD3;}
	.st14{fill:url(#SVGID_1_);}
	.st15{fill:url(#SVGID_2_);}
	.st16{fill:#D38884;}
	.st17{fill:#A36468;}
	.st18{fill:#444053;}
	.st19{fill:#67647E;}
	.st20{opacity:0.1;}
	.st21{fill:#0364B8;}
	.st22{fill:#0A2767;}
	.st23{fill:#28A8EA;}
	.st24{fill:#0078D4;}
	.st25{fill:#50D9FF;}
	.st26{fill:none;}
	.st27{fill:#064A8C;}
	.st28{opacity:0.5;fill:#0A2767;enable-background:new    ;}
	.st29{fill:#1490DF;}
	.st30{opacity:5.000000e-02;enable-background:new    ;}
	.st31{opacity:0.2;enable-background:new    ;}
	.st32{fill:#FFFFFF;}
	.st33{fill:#E75A4D;}
	.st34{fill:url(#SVGID_3_);}
	.st35{fill:#E7E4D7;}
	.st36{fill:#B8B7AE;}
	.st37{fill:#B7B6AD;}
	.st38{fill:#B2392F;}
	.st39{fill:url(#SVGID_4_);}
	.st40{fill:url(#SVGID_5_);}
	.st41{fill:url(#SVGID_6_);}
	.st42{fill:url(#SVGID_7_);}
	.st43{fill:url(#SVGID_8_);}
	.st44{fill:url(#SVGID_9_);}
	.st45{fill:url(#SVGID_10_);}
	.st46{fill:#F7F5ED;}
</style>
<title>in_the_office</title>
<circle class="st0" cx="266.4" cy="2.8" r="1"/>
<circle class="st1" cx="269.3" cy="2.8" r="1"/>
<circle class="st2" cx="272.2" cy="2.8" r="1"/>
<path class="st3" d="M547.1,544.8c-6.9,15.1-28.9,37.6-28.9,42c0,0.6,0.1,1.3,0.2,1.9C525.2,578.6,545.6,556.4,547.1,544.8z"/>
<path class="st4" d="M789.1,565.3c-3.3,13-8,24.3-13.6,33.3c-0.8,1.3-1.6,2.6-2.5,3.9c-1.1,1.5-2.3,3.2-3.4,4.8
	c-9.1,11.9-19.8,20-30.3,25.8c-2.8,1.5-5.7,3.1-8.5,4.5c-2.4,1.2-4.8,2.3-7.3,3.4c-0.9,0.4-1.8,0.8-2.7,1.2s-1.9,0.8-3,1.2l-1.4,0.5
	c-27,10.2-54.5,12.1-82,9.6l-1.3-0.1l-2.1-0.3c-5.6-0.6-11.2-1.3-16.9-2.3l-2.2-0.4l-0.9-0.1c-3.2-0.5-6.3-1.2-9.5-1.8
	c-4.1-0.8-8.3-1.7-12.4-2.7l-0.6-0.1l-0.5-0.1l0,0c-14.8-3.4-29.7-7.5-44.7-11.7l-2.1-0.6l-3.8-1l-3.2-0.9l0,0l-0.9-0.3
	c-5-1.4-10-2.8-15-4.3l-0.8-0.3c-9.5-2.6-18.9-5.2-28.4-7.5l-1.3-0.3l0,0c-3.9-0.9-7.7-1.8-11.6-2.7l-3-0.6l-3.9-0.8
	c-10.8-2.2-21.8-4-32.6-5c-5.2-0.5-10.5-0.9-15.7-1.2c-4.3-0.3-8.7-0.3-13-0.4c-5.9,0-11.7,0-17.7,0.3l0,0h-1.4
	c-8.3,0.3-16.6,0.8-25,1.3l-1.5,0.1h-0.5c-17.7,1.3-35.4,3-53.1,4.3l-4.3,0.3h-0.8c-6.2,0.4-12.3,0.8-18.3,0.9h-1.6l0,0h-1.9
	l-2.7,0.1c-2.8,0-5.7,0.1-8.5,0.1h-3.5c-10.4,0-20.7-0.5-31.1-1.7l-1.1-0.1c-20.1-2.2-39.8-6.7-59.2-15.1c-2.1-0.9-4-1.8-6-2.7
	c-13.4-6.2-26.5-14.3-39.4-24.5c-6-4.8-12.1-10.5-16.7-19.9c-11.6-24.1-7.3-71.4,7.9-85.1c11.8-10.7,25.7-2.1,38.5-6.8
	c0.8-0.3,1.6-0.6,2.3-1.2c1.6-1,3.2-2.5,4.7-4c0.6-0.5,1-1.2,1.6-1.7c1.1-1.3,2.4-2.7,3.5-4.4c1.8-2.6,3.6-5.3,5.4-8.3
	c0.8-1.3,1.5-2.7,2.2-4c2.5-4.6,4.7-9.9,6.5-15.7c0.7-2.2,1.3-4.5,1.8-6.8c0.2-1.2,0.6-2.5,0.7-3.7c0.3-1.8,0.6-3.6,0.7-5.6
	c0.8-8.9-0.5-17.7-4.7-25c-0.3-0.6-0.8-1.3-1.1-1.8c-0.8-1.2-1.7-2.2-2.5-3c-0.3-0.4-0.7-0.6-1.1-1c-5.4-4.6-12.3-6.5-18.2-9.7l0,0
	c-1.8-0.9-3.5-2.2-5.2-3.7c-1-1-2.2-2.1-3.2-3.2l0,0l-0.2-0.3l0,0c-8.9-9.4-16.7-22.6-23-38.6c-1.6-4-3-8.3-4.3-12.6
	c-0.3-1.3-0.8-2.7-1.1-4c-10.4-38.2-11.4-87.3-0.7-124.8c1.4-4.5,2.7-8.9,4.3-13c0.6-1.4,1-2.7,1.6-4c10.3-24.8,25.1-41.6,39.9-54
	c19.9-16.7,40.9-27.2,62.2-34.1c4.3-1.4,8.7-2.7,13-3.7c18.1-4.8,36.5-7.2,54.7-9.2c17-1.8,34.2-2.8,51.3-3.4
	c5.8-0.1,11.6-0.3,17.4-0.3c13.1,0,26.3,0.5,39.4,1.5c4.3,0.4,8.7,0.8,13,1.2c11.1,1.2,22.2,2.8,33.3,4.8c5.4,1,10.6,2.1,16,3.2
	c40.2,9,80,24.3,118.3,48c4.3,2.7,8.7,5.6,13,8.4c16.1,10.8,31.9,23.4,47.4,37.4c1.5,1.3,3,2.7,4.3,4c9.7,9,19.3,18.8,28.6,29.3
	c12.4,13.7,24.4,28.9,35.8,45.8c4.4,6.7,8.8,13.7,13,20.9c7.4,12.8,14.4,26.7,20.7,41.8c0.6,1.3,1.1,2.7,1.7,4
	c2.8,7.1,5.6,14.3,8.2,21.9c12.6,37,21.1,79.5,27.3,122.9C794.1,487.6,797.9,530.1,789.1,565.3z"/>
<path class="st4" d="M735.9,439.8h-45.7V307.4h20.3c-0.5-1.4-1-2.7-1.5-4.1h-18.8v-42.2c-3.8-7.4-7.7-14.3-11.7-21v63.4H573.1V164.1
	H620c-1.4-1.4-2.6-2.7-4-4.1h-43v-37.8c-3.9-3-7.9-5.8-11.7-8.5V160H411l-0.3-0.8l43.5-94c-4.8-1.2-9.6-2.3-14.4-3.2l-30.1,65.1v-70
	c-3.9-0.5-7.9-0.9-11.7-1.2v75.6l-35.7-77.2c-5.2,0-10.6,0.1-15.8,0.3l48.4,104.7l-0.3,0.8H250.2V67.3c-3.9,1.2-7.9,2.5-11.7,3.9
	v88.9h-92.6c-0.5,1.3-1,2.7-1.5,4.1h94.1v139.1h-97.4c0.3,1.4,0.7,2.7,1,4.1h96.4V440h-47.4c-0.7,1.4-1.3,2.8-1.9,4.1h49.4v135.4
	c3.9,1.3,7.9,2.6,11.7,4V444.1h147.4v169.7c3.9,0,7.9,0.1,11.7,0.4V444h151.8v207.8l0.5,0.1c3.8,0.9,7.5,1.8,11.3,2.7V444h105.3
	v205.4c0.9-0.4,1.8-0.8,2.6-1.2c0.9-0.4,1.7-0.8,2.5-1.2c2.2-1,4.4-2.2,6.6-3.4V444h46C736.1,442.5,736,441.1,735.9,439.8z
	 M397.8,439.8H250.2V307.4h147.5L397.8,439.8L397.8,439.8z M397.8,303.4H250.2V164.1h145.5l2.1,3.7L397.8,303.4L397.8,303.4z
	 M561.4,439.8H409.6V307.4h151.8V439.8L561.4,439.8z M561.4,303.4H409.6V164.1h151.8V303.4L561.4,303.4z M678.4,439.8H573.1V307.4
	h105.3L678.4,439.8L678.4,439.8z"/>
<path class="st5" d="M107.5,608.9c0,0.1-0.1,0.3-0.1,0.4l0,0C107.4,609.2,107.5,609,107.5,608.9L107.5,608.9z"/>
<path class="st5" d="M453.8,594.6h-3.2h-0.1h-3.8l-5.2,0.1l-0.6-6.8l-0.6-6.5l-2.5-29.4l-0.1-0.9v-0.5l-0.7-8.3l10.6-4.5l1.3,12
	l0.1,0.9v0.1l2.6,24.4l0.8,7.5l0.5,4.4l0.5,3.7v0.1L453.8,594.6z"/>
<polygon class="st6" points="151.6,608.9 151.7,609.3 150.9,609.3 150.8,608.9 "/>
<path class="st6" d="M249,609.3L249,609.3L249,609.3z"/>
<path class="st6" d="M655.1,490.8c0,0.3,0,0.4,0,0.4v0.1c0,0-9.9,30.7-13.2,57.1c-0.2,1.7-0.5,3.5-0.6,5.2c-0.1,1.8-0.3,3.6-0.3,5.3
	c-0.1,2.1-0.1,4-0.1,5.8c0,0.4,0,0.9,0,1.3c0,0.9,0.1,1.8,0.1,2.7s0.1,1.8,0.2,2.8s0.1,1.8,0.2,2.7c2.5,28.4,11.7,70,11.7,70
	s0.3,1.2,0.7,3h-2.6c-16.1,0.3-32.1,0.8-48.2,1.4l-2.8,0.1h-0.9c-34.2,1.4-68.4,3.2-102.4,4.5l-8.3,0.3h-1.3
	c-11.8,0.4-23.7,0.8-35.5,1h-3.2c0.8-1.3,1.7-2.5,2.7-3.5c0.9-0.9,1.8-1.7,2.8-2.5c5.5-3.9,11.3-6.7,17.5-8.5c1.3-0.4,2.6-0.6,4-0.5
	l8,0.1h1.3l12.2,0.3l104.9,2.3h0.2l0.7-0.1c1.3-0.4,2.4-0.8,3.5-1.4c4-1.9,6.8-6.1,7.5-11c0-0.4,0.1-0.8,0.1-1.3c0-0.6,0-1.3,0-1.9
	c0-0.4,0-0.9-0.1-1.4s-0.1-0.9-0.2-1.4c-2.5-16-6.8-65.3-6.8-65.3v0.1c0,0,0-2.1,0.1-5.7c0-0.3,0-0.5,0-0.9v-0.8
	c0-0.8,0.1-1.7,0.1-2.6c0-0.5,0.1-1.2,0.1-1.7c0-0.9,0.1-1.8,0.2-2.7V544c0-0.6,0.1-1.2,0.1-1.8c0.1-0.9,0-0.1,0-0.3
	c1.7-19.1,7.1-49.2,23.9-60.4c8-5.3,13.1-6.3,16.6-5.3c5,1.5,6.3,7.5,6.6,11.4c0,0.3,0,0.5,0,0.8C655,489.3,655,490,655.1,490.8z"/>
<path class="st3" d="M107.5,608.9c0,0.1-0.1,0.3-0.1,0.4l0,0C107.4,609.2,107.5,609,107.5,608.9L107.5,608.9z"/>
<polygon class="st3" points="151.6,608.9 151.7,609.3 150.9,609.3 150.8,608.9 "/>
<path class="st3" d="M249,609.3L249,609.3L249,609.3z"/>
<path class="st3" d="M655.1,490.8c0,0.3,0,0.4,0,0.4s-8.2,25.4-12.1,49.7l0,0c-0.2,1.7-0.6,3.4-0.8,5c-0.1,0.8-0.2,1.7-0.3,2.5
	c-0.2,1.7-0.5,3.5-0.6,5.2c-0.1,1.8-0.3,3.6-0.3,5.3c-0.1,2.1-0.1,4-0.1,5.8c0,0.4,0,0.9,0,1.3c0,0.9,0.1,1.8,0.1,2.7
	s0.1,1.8,0.2,2.8s0.1,1.8,0.2,2.7c0.1,0.9,0.1,1.8,0.2,2.7c0.3,3.6,0.8,7.5,1.4,11.4c3.5,26.3,10.1,55.8,10.1,55.8s0.3,1.2,0.7,3.2
	l0,0h-2.6c-16.1,0.3-32.1,0.8-48.2,1.4l-2.8,0.1h-0.9c-34.2,1.4-68.4,3.2-102.4,4.5l-8.3,0.3h-1.3c-11.8,0.4-23.7,0.8-35.5,1h-3.2
	h-0.1c0.8-1.3,1.8-2.6,2.8-3.6c0.9-0.9,1.8-1.8,2.8-2.5c5.5-3.9,11.3-6.7,17.4-8.5c1.3-0.4,2.6-0.5,4-0.5l8,0.1h1.3l12.3,0.3
	l105,2.3h0.2c0,0,0.3,0,0.8-0.3c1.3-0.4,2.4-0.8,3.5-1.4c3.9-1.9,6.7-5.9,7.4-10.7c0-0.4,0.1-0.8,0.1-1.3c0-0.6,0-1.3,0-1.9
	c0-0.4,0-0.9-0.1-1.4s-0.1-1-0.2-1.5c-2.5-16-6.8-65.3-6.8-65.3s0-2.1,0.1-5.7c0-0.3,0-0.5,0-0.9V551c0-0.8,0.1-1.7,0.1-2.6
	c0-0.5,0.1-1.2,0.1-1.7c0-0.9,0.1-1.8,0.2-2.7v-0.1c0-0.6,0.1-1.2,0.1-1.8c0.1-0.9,0-0.1,0-0.3c0.2-2.3,0.5-4.9,0.8-7.6
	c2.4-18.7,8.3-43.1,23-52.9c7.7-5.2,12.9-6.2,16.3-5.4c5.4,1.4,6.6,7.6,6.8,11.5c0,0.3,0,0.5,0,0.8
	C655,489.1,655.1,489.9,655.1,490.8z"/>
<path class="st6" d="M107.5,608.9c0,0.1-0.1,0.3-0.1,0.4l0,0C107.4,609.2,107.5,609,107.5,608.9L107.5,608.9z"/>
<polygon class="st6" points="151.6,608.9 151.7,609.3 150.9,609.3 150.8,608.9 "/>
<path class="st6" d="M249,609.3L249,609.3L249,609.3z"/>
<path class="st6" d="M652.2,489.6c0,0-14.8,46.1-14.1,73.6s12.3,79.3,12.3,79.3s0.5,1.8,1,4.8c-16.1,0.3-32.1,0.8-48.2,1.4l-2.8,0.1
	h-0.9c-34.2,1.4-68.4,3.2-102.4,4.5l-8.3,0.3h-1.3c-11.8,0.4-23.7,0.8-35.5,1h-3.2h-0.1h-3.8c1.6-3,3.8-5.6,6.3-7.5l0.3-0.3
	c5.5-3.7,11.3-6.6,17.4-8.3c1.3-0.4,2.6-0.5,4-0.5l10.5,0.3h1.3l12.6,0.3l102.3,2.3c1.5-0.3,2.8-0.8,4.2-1.5
	c0.5-0.3,0.9-0.5,1.3-0.8l0,0c1.3-0.8,2.4-1.9,3.4-3.2c2.2-2.8,3.5-6.8,2.6-12.9c-2.5-16-6.8-65.3-6.8-65.3s-0.7-60,24.6-76.8
	c10.3-6.8,16.1-6.6,19.3-3.9c0.1,0.1,0.2,0.1,0.2,0.3C652.8,480.7,652.2,489.6,652.2,489.6z"/>
<path class="st5" d="M245,542.4l-0.5,4.8l-2.5,29.6c-3.9-0.9-7.7-1.9-11.6-2.8l2.8-26.8l1-9.2L245,542.4z"/>
<polygon class="st7" points="170.1,593 232.2,443.4 482.1,465.5 505.1,593 "/>
<polygon class="st8" points="172.1,545.9 172.1,532.9 507,532.9 507,552 "/>
<path class="st9" d="M264.6,571.2l149.9,3.5c1.1,0,2.1-1,2.2-2.3c0-0.3,0-0.5-0.1-0.8l-23.5-71.4l-101-2.2l-29.8,69.3
	c-0.6,1.4,0,3.1,1.3,3.7C263.9,571.1,264.2,571.2,264.6,571.2z"/>
<path class="st10" d="M264.6,571.2l149.9,3.5c1.1,0,2.1-1,2.2-2.3c0-0.3,0-0.5-0.1-0.8l-23.5-71.4l-101-2.2l-29.8,69.3
	c-0.6,1.4,0,3.1,1.3,3.7C263.9,571.1,264.2,571.2,264.6,571.2z"/>
<path class="st9" d="M263.4,568.3l151.4,3.6l-20.6-70.6c-0.7-2.3-2.6-4-4.8-4l-97.3-2.1L263.4,568.3z"/>
<path class="st11" d="M275.9,552.3l18.1-45.2c0.8-1.9,2.5-3.2,4.4-3.2h45.1c2.6,0,4.8,2.5,4.8,5.4v48.9c0,3-2.2,5.4-4.8,5.4
	c-0.1,0-0.1,0-0.2,0l-63.2-3.6c-2.6-0.1-4.7-2.7-4.6-5.7C275.5,553.5,275.6,552.9,275.9,552.3z"/>
<path class="st12" d="M364.8,546.6l0.8-25.8c0-2.2,1.6-3.9,3.5-3.9h13.3c1.7,0,3.1,1.4,3.4,3.2l3.9,25.7c0.3,2.2-0.9,4.3-2.8,4.5
	c-0.2,0-0.3,0-0.6,0l-18,0.1C366.4,550.6,364.8,548.8,364.8,546.6L364.8,546.6z"/>
<path class="st11" d="M188.2,378.6l50.2-4.8c1.5-0.3,3,0.6,3.5,2.3L289.5,498L263,565.5c0.8-2.1,1.5,14.3-4.6,0.1l-75.5-178.5
	C182,384.7,185.8,378.9,188.2,378.6z"/>
<path class="st10" d="M188.2,378.6l50.2-4.8c1.5-0.3,3,0.6,3.5,2.3L289.5,498L263,565.5c0.8-2.1,1.5,14.3-4.6,0.1l-75.5-178.5
	C182,384.7,185.8,378.9,188.2,378.6z"/>
<path class="st11" d="M188.2,378.6l52.9-7.6c1.5-0.3,3,0.6,3.5,2.3l47.5,121.9l-28.7,73.2l-77.8-184.1c-0.8-1.9-0.1-4.3,1.6-5.2
	C187.4,378.8,187.9,378.6,188.2,378.6z"/>
<path class="st13" d="M201.5,387.2l38.2-6.7c1.6-0.3,3.1,0.6,3.8,2.3l40,110.9c0.3,0.9,0.3,1.9-0.1,2.8l-18.3,43.4
	c-0.7,1.8-2.5,2.5-4.1,1.7c-0.7-0.4-1.1-0.9-1.5-1.7L199,392.8c-0.8-1.9-0.1-4.3,1.6-5.2C200.8,387.3,201.1,387.3,201.5,387.2z"/>
<linearGradient id="SVGID_1_" gradientUnits="userSpaceOnUse" x1="266.96" y1="-14.67" x2="266.96" y2="-14.67" gradientTransform="matrix(1 0 0 1 -17.96 623.97)">
	<stop  offset="0" style="stop-color:#808080;stop-opacity:0.25"/>
	<stop  offset="0.54" style="stop-color:#808080;stop-opacity:0.12"/>
	<stop  offset="1" style="stop-color:#808080;stop-opacity:0.1"/>
</linearGradient>
<path class="st14" d="M249,609.3L249,609.3L249,609.3z"/>
<linearGradient id="SVGID_2_" gradientUnits="userSpaceOnUse" x1="317.5516" y1="-150.9273" x2="626.76" y2="-150.9273" gradientTransform="matrix(1 0 0 1 -17.96 623.97)">
	<stop  offset="0" style="stop-color:#808080;stop-opacity:0.25"/>
	<stop  offset="0.54" style="stop-color:#808080;stop-opacity:0.12"/>
	<stop  offset="1" style="stop-color:#808080;stop-opacity:0.1"/>
</linearGradient>
<path class="st15" d="M608.8,636.9c0,0-0.8,1.4-1.9,3.9l-0.1,0.3c-1,2.1-2.3,4.8-3.5,7.7l-2.8,0.1h-0.9
	c-34.2,1.4-68.4,3.2-102.4,4.5l-8.3,0.3h-1.3c-11.8,0.4-23.7,0.8-35.5,1h-3.2h-0.1H445l-5.2,0.1c-5.5,0-10.9,0.1-16.4,0.1h-6.5
	c-20.1,0-40.1-0.5-59.9-1.7l-2.2-0.1c3.9-9.7,10.9-25.4,16.5-30.5c4.3-3.9,35.9-8.1,64.8-11.4l3.1-0.4h0.1l8.1-0.9
	c11.1-1.2,21.2-2.1,28.4-2.7h0.7l-3.8-14.2l-5.5-20.7l1.6-17.3l0.1-1.4h-0.3c-1.6,0.1-3.1,0-4.6-0.6l-54.1-2.1h-1l0,0l-20.7-0.9l0,0
	c-11.2-0.4-19-0.8-19.4-0.9c-0.3,0-0.7-0.1-0.9-0.3c-0.5-0.3-0.9-0.5-1.4-0.9s-0.8-0.9-1.1-1.5h-0.2h-0.5l-3,0.3L360,547
	c-0.1-0.1-0.1-0.4-0.1-0.5c-0.1-0.5-0.2-1-0.5-1.4h-0.8l-10.3-0.3h-0.2c0,0-26.4,2.3-40.3-3.5l0,0c-5-2.1-8.4-5.3-8.2-9.9
	c0.1-1,0.2-2.2,0.6-3.1c-4.4-9.4,17.2-26.6,33.8-21.8c4.4,1.4,9.2,1.7,13.8,0.6c2.5-0.6,4.8-1.8,6.8-3.5c0.2-0.1,0.3-0.4,0.6-0.5
	c-0.2-0.3-0.6-0.4-0.8-0.5c-1.1-0.6-2.4-1.2-3.6-1.4l4.4-1.5h0.1c0,0,16-1.7,26.3-2.3h0.1c3.1-0.1,5.7-0.3,7.3-0.3
	c6.8,0.3,20.2-5.3,20.7-7s6.6,0,6.6,0l5.4-2.3c5.4-2.3,8.3-5.6,8.3-7.9s4.8-4.9,4.8-4.9c2.2-4.1,6.4-8.4,10.7-12.3
	c3.9-3.4,7.7-6.3,10.7-8.4c1.1-8.4,2.6-16.7,4.6-24.8c2.1-7.6,8.3-13.3,10.5-15.1l0.8-0.6c-0.7-3.2-1.5-6.3-2.5-9.4
	c-0.1-0.3-0.1-0.5-0.2-0.8c-0.2-0.6-0.5-1.2-0.7-1.8l-0.3-0.8c-0.6,0.1-1.1,0.3-1.7,0.4c-1.9,0.3-3.8,0.5-5.7,0.5
	c-17.5,0.1-33-13.2-37.7-32.3c0,0,0,0,0-0.1c-0.9-3.7-1.4-7.7-1.4-11.6c0-3.7,0.5-7.5,1.3-11.1l0,0c0.1-0.8,0.3-1.5,0.6-2.3
	c0-0.1,0-0.1,0.1-0.3c0.1-0.4,0.2-0.6,0.3-1c-1.7,0.3-3.4,0.5-5.1,0.5H418c-3.3,0.1-6.5-0.5-9.6-1.8l0,0c-0.7-0.4-1.5-0.8-2.1-1.3
	c0,0-0.1,0-0.1-0.1c-0.9-0.5-1.7-1.3-2.4-2.1c2.5-2.2,4.2-5.6,4.7-9.2c0.3-2.8-0.1-5.9,1.4-8.1c0.8-1,1.7-1.9,2.6-2.6
	c6-4.6,10.8-11.1,16.3-16.7s12.1-10.3,19.5-10.6c9.9-0.4,18.6,7.5,28.4,8.9c3,0.5,6.2,0.3,9,1.2c3.3,1.2,6.4,3,9.1,5.3
	c2.5,1.7,4.7,3.7,6.5,6.3c1.3,2.2,2.2,4.6,2.6,7.2c1.3,5.4,2.1,11,2.3,16.5c0.2,5.8,0,11.7,0.6,17.6c0.3,5,1.9,9.9,4.3,14.1h0.1
	c0.5,0.6,0.9,1.3,1.4,1.9c-1,0.4-1.9,0.6-3,0.9c-1.6,0.5-3.3,0.9-5,1.2c-0.8,0.1-1.6,0.3-2.3,0.3c-0.6,0-1.1,0-1.6-0.1l1,0.8
	l2.7,2.1l0,0l1,0.8l2.1,1.5c0.5-1.5,1.1-2.1,1.9-1.9c1.6-1.7,3.9,1.9,3.9,1.9c1.4,3,5,5.8,8.2,8c1.9,1.3,3.9,2.5,5.8,3.5
	c42.6,28.8,39.9,71.8,42.4,75.1c2.5,3.4,2.6,15.7,2.6,15.7s6.3,42,9.1,45.6s0.2,4.9,2.6,8.9c2.4,4,1.9,14.8,1.9,14.8
	s1.7,25.6,7.7,31.1c5.5,4.9,12.8,46.7,14.2,55.4L608.8,636.9z"/>
<path class="st16" d="M359.2,502.3c0,0-5.9,10.6-22.7,5.7c-16.7-4.9-39,13.6-32.6,22.6c6.3,9,47.1-2.6,47.1-2.6l15.6-3.6l-1-14.7
	L359.2,502.3z"/>
<path class="st3" d="M359.2,502.3c0,0-5.9,10.6-22.7,5.7c-16.7-4.9-39,13.6-32.6,22.6c6.3,9,47.1-2.6,47.1-2.6l15.6-3.6l-1-14.7
	L359.2,502.3z"/>
<path class="st17" d="M364.7,501.8l-7.3-0.4l-4.4,1.4c0,0,14.1,2.3,10.3,24l15.3-1L364.7,501.8z"/>
<path class="st3" d="M364.7,501.8l-7.3-0.4l-4.4,1.4c0,0,14.1,2.3,10.3,24l15.3-1L364.7,501.8z"/>
<path class="st18" d="M460.8,453.2c0,0-19.9,12.9-25.5,23.6c0,0-4.7,2.6-4.7,4.9s-3,5.4-8.2,7.7l-5.2,2.3c0,0-5.9-1.7-6.5,0
	s-13.6,7.1-20.3,7c-6.7-0.3-32.9,2.6-32.9,2.6c9.9,5,15.4,17.3,13.2,29.3l62-3l23.5-5.9l13.8-15.6L460.8,453.2z"/>
<path class="st3" d="M460.8,453.2c0,0-19.9,12.9-25.5,23.6c0,0-4.7,2.6-4.7,4.9s-3,5.4-8.2,7.7l-5.2,2.3c0,0-5.9-1.7-6.5,0
	s-13.6,7.1-20.3,7c-6.7-0.3-32.9,2.6-32.9,2.6c9.9,5,15.4,17.3,13.2,29.3l62-3l23.5-5.9l13.8-15.6L460.8,453.2z"/>
<path class="st16" d="M369.4,546.6l-8.8-0.3l-10.3-0.3c0,0-48.4,4.3-47.5-13.3s38.2-23.8,43.4-18.7c4,3.9,13,6.8,17.2,8.1
	c1.4,0.4,2.2,0.6,2.2,0.6L369.4,546.6z"/>
<path class="st3" d="M369.4,546.6l-8.8-0.3c-3.5-13.6,0.6-21.2,2.8-24c1.4,0.4,2.2,0.6,2.2,0.6L369.4,546.6z"/>
<path class="st17" d="M375.3,547.2l-9.1,0.8l-4.3,0.4c-5.9-19.9,3.6-27.6,3.6-27.6h2.8l4.7,0.6L375.3,547.2z"/>
<path class="st16" d="M485.7,415.7l-10.8,23.2c0,0-1.7-23.5-6.5-34.6c-1.3-2.8-2.6-4.9-4.3-5.4c-4.6-1.7,21.6-34.2,21.6-34.2
	c0.9,0.3,5.9,3.9,12.1,8.6c6.7,5.2,14.9,11.5,20.4,15.5C528.5,396.2,485.7,415.7,485.7,415.7z"/>
<path class="st18" d="M471.8,416.1c0,0-8.7,6.3-11.1,15.6s-4.7,25.9-4.7,25.9s3.9,39.9,5.9,41.7c2.1,1.9,9.8,41.7,9.8,41.7l7.5-5.7
	l-9.9-50.2C469.5,485.3,476,420.7,471.8,416.1z"/>
<path class="st3" d="M471.8,416.1c0,0-8.7,6.3-11.1,15.6s-4.7,25.9-4.7,25.9s3.9,39.9,5.9,41.7c2.1,1.9,9.8,41.7,9.8,41.7l7.5-5.7
	l-9.9-50.2C469.5,485.3,476,420.7,471.8,416.1z"/>
<polygon class="st17" points="509.6,505 466.2,505 473.3,427.4 509.6,427.4 "/>
<path class="st19" d="M70.7,608.9h0.6l-1,0.4L70.7,608.9z"/>
<path class="st19" d="M492.7,565.4l-8.5,3.7l-1.1,0.5l-30.5,13.2l-11.6,5l-15.8,6.8h-6.5c-20.1,0-40.1-0.5-59.9-1.7
	c3.9-9.6,10.6-24.9,16.1-29.8c4.3-3.9,35-8,63.2-11.2c3.5-0.4,7.1-0.8,10.4-1.2l0.8-0.1c11.3-1.2,21.4-2.1,28.5-2.7l1.1-0.1l8.9-0.8
	l0.9-1l1.1,5.6l0.9,4.4L492.7,565.4z"/>
<path class="st3" d="M70.7,608.9h0.6l-1,0.4L70.7,608.9z"/>
<path class="st3" d="M492.7,565.4l-8.5,3.7l-1.1,0.5l-30.5,13.2l-11.6,5l-15.8,6.8h-6.5c-20.1,0-40.1-0.5-59.9-1.7
	c3.9-9.6,10.6-24.9,16.1-29.8c4.3-3.9,35-8,63.2-11.2c3.5-0.4,7.1-0.8,10.4-1.2l0.8-0.1c11.3-1.2,21.4-2.1,28.5-2.7l1.1-0.1l8.9-0.8
	l0.9-1l1.1,5.6l0.9,4.4L492.7,565.4z"/>
<path class="st19" d="M70.7,608.9h0.6l-1,0.4L70.7,608.9z"/>
<path class="st19" d="M107.5,608.9c0,0.1-0.1,0.3-0.1,0.4l0,0C107.4,609.2,107.5,609,107.5,608.9L107.5,608.9z"/>
<polygon class="st19" points="151.7,609.3 150.9,609.3 150.8,608.9 151.6,608.9 "/>
<path class="st19" d="M500,551.9l-0.7,26.6v1.4v0.1l-0.3,13.2l-8.3,0.3h-1.3c-11.8,0.4-23.7,0.8-35.5,1h-3.2h-0.1h-3.8l-5.2,0.1
	c-5.5,0-10.9,0.1-16.4,0.1h-6.6c5.9-4.1,13.6-8.8,21.9-13.3c3.8-2.1,7.5-4.1,11.4-6.2c10.3-5.4,20.6-10.5,29.1-14.6l1.1-0.5
	c3.3-1.5,6.3-3,8.8-4.1C496.2,553.4,499.7,551.9,500,551.9L500,551.9z"/>
<path class="st3" d="M421.9,502.8c2.2,5,4.3,10.2,7.9,14.1c0.6,0.6,1.5,1.2,2.1,0.5c0.1-0.3,0.2-0.6,0.2-0.9
	c-0.1-2.3-0.8-4.6-2.1-6.6c-1.1-1.9-2.5-3.7-3.5-5.8c-1-2.1-2.2-6.1-4.4-6.6C419.1,496.7,421.2,501.4,421.9,502.8z"/>
<path class="st3" d="M497.8,373.2c-0.1,0.6-0.3,1.3-0.6,1.9c-4.3,14.8-15.3,25.9-28.8,29c-1.3-2.8-2.6-4.9-4.3-5.4
	c-4.6-1.7,21.6-34.2,21.6-34.2C486.6,364.8,491.6,368.6,497.8,373.2z"/>
<path class="st16" d="M499.2,360.8c0,24-17.2,43.5-38.4,43.5c-21.2,0-38.4-19.5-38.4-43.5s17.2-43.5,38.4-43.5
	c21.2,0,38.3,19.4,38.4,43.2C499.2,360.7,499.2,360.7,499.2,360.8z"/>
<path class="st19" d="M475.5,425.4c0,0-8,11-6.7,18.2h9.7l7.1-9L475.5,425.4z"/>
<path class="st3" d="M503.8,379l-30.4,47.4c0,0,7.9,12.6,11.5,13.3s25-56,25-56L503.8,379z"/>
<path class="st17" d="M504.3,378.1l-30.4,47.5c0,0,7.9,12.6,11.5,13.3c3.6,0.6,25-56,25-56L504.3,378.1z"/>
<path class="st19" d="M469.9,438.9c0,0-1.5,26.6-3,31.9s0,53.8,0,53.8l14-6.6l-2.4-74.5L469.9,438.9z"/>
<polygon class="st3" points="151.6,608.9 151.7,609.3 150.9,609.3 150.8,608.9 "/>
<path class="st3" d="M249,609.3L249,609.3L249,609.3z"/>
<path class="st3" d="M604.5,638c0,0-0.2,0.5-0.7,1.3s-0.9,1.8-1.5,3.1l-0.1,0.1c-0.8,1.8-1.8,3.9-2.8,6.3
	c-34.2,1.4-68.4,3.2-102.4,4.5l-8.3,0.3h-1.3l-3.5-13.7v-0.1l-0.3-1.4l-2.3-8.6L479,621l-2.4-9.3l-0.9-3.4l-0.2-0.9l-3.8-14.3
	l-5-19.5l1.6-18.6l0,0l0.1-1.4l1.5-16.7l0.2-4.9l0,0l0.1-2.6v-0.8l0,0l0.2-5.9l0.8-17.8l0.3-9.2l0,0l0.1-1.4l0,0l0.8-18.3l2.2-7.5
	l1.1-3.7l2.5-8.6l0.6-2.2l0,0c0.8-3.2,2.4-9.7,3.9-15.7l0,0l0.1-0.5l0,0l0.1-0.4l1-4.4l1.4-5.7c0.5-2.2,0.8-3.7,0.9-4.3
	c0.1-0.9,2.3-5,5.1-10.3l0,0c5.7-10.7,14.2-26.3,15.3-31.6V381c0.1-0.3,0.1-0.6,0.2-0.9c0.5-1.5,1.1-1.9,1.8-1.9
	c0.3,0,0.7,0.3,0.9,0.4c0.7,0.5,1.3,1.2,1.8,1.9c1.4,3,4.9,5.8,8.1,8l0.6,0.4l0.3,0.3c2.6,1.7,4.8,2.7,4.8,2.7
	c41.7,28.5,39.1,71.1,41.5,74.5s2.6,15.6,2.6,15.6s6.2,41.6,8.9,45.2c2.8,3.6,0.2,4.9,2.6,8.9c2.4,4,1.8,14.6,1.8,14.6
	s1.7,25.3,7.6,30.7C596.3,587.1,604.5,638,604.5,638z"/>
<path class="st18" d="M605.6,637.6l-0.5,1l0,0c-0.3,0.8-1,2.1-1.8,3.6l-0.1,0.1c-0.9,1.8-1.9,4-2.8,6.5h-0.9
	c-34.2,1.4-68.4,3.2-102.4,4.5l-8.3,0.3l-3.5-13.7v-0.1l-0.3-1.4l-2.4-9l-2.3-8.8l-2.3-8.8l-0.9-3.5l0,0l-4-15.1l-5.1-19.9l1.5-16.1
	l0.2-2.2l1.6-18.3l0,0l0.6-14.3l0.8-17.3l0.2-4.5l0.2-5.3l0.1-2.2l0.7-17.3l2.2-7.5l0.9-3.2l2.2-7.5l0.5-1.5c0,0,2.2-8.5,4.2-16.9
	c0.1-0.3,0.1-0.6,0.2-0.9c0.2-0.8,0.3-1.4,0.6-2.2l0,0c0.2-0.8,0.3-1.4,0.6-2.2c0.6-2.3,1.1-4.5,1.5-6.3c0.6-2.3,0.9-4.1,1-4.6
	c0.1-0.9,2.3-5,5.2-10.5c5.4-10.1,13.2-24.5,14.9-30.5c0.1-0.3,0.1-0.6,0.2-0.9l0,0c0.1-0.9,0.5-1.8,1-2.6c1.5-1.7,3.8,1.9,3.8,1.9
	c1.4,3,4.9,5.8,8.1,8c1.8,1.3,3.8,2.5,5.7,3.4c41.7,28.5,39.1,71.1,41.5,74.5s2.6,15.6,2.6,15.6s6.2,41.6,8.9,45.2
	c2.8,3.6,0.2,4.9,2.6,8.9c2.4,4,1.8,14.7,1.8,14.7s1.7,25.3,7.6,30.8C597.4,586.7,605.6,637.6,605.6,637.6z"/>
<path class="st3" d="M520.6,389c-4.1,6.7-10.7,18.6-12.5,27.1c0,0-6.5,7.6-8.9,7.2s2.3,5.7,2.3,5.7l-25.6,40.3l3.6-12.4
	c0,0,7.6-30.3,8-33c0.3-2.7,18.9-34.1,20.4-42c1.1-6.3,4.8-0.6,4.8-0.6C513.9,383.9,517.4,386.9,520.6,389z"/>
<path class="st18" d="M520.6,388.2c-4.1,6.7-10.7,18.6-12.5,27.1c0,0-6.5,7.6-8.9,7.2s2.3,5.7,2.3,5.7l-25.6,40.1l3.6-12.4
	c0,0,7.6-30.3,8-33.2s18.9-34.1,20.4-42c1.1-6.3,4.8-0.6,4.8-0.6C513.9,383.2,517.4,386,520.6,388.2z"/>
<path class="st3" d="M555,471.4c0.2,9.2-11.7,21.8-12.3,22.6s-37,34.9-37,34.9l-26.2,22.7c-3,2.7-6.5,4.6-10.3,5.4l1.8-20.4
	l1.7-41.3c4.1-5.2,8.1-10.6,8.2-12.3c0.2-3.6,6.8-7.4,6.8-7.4s4.7-4.4,3.9-7c-0.8-2.6,2.5-14.7,2.5-14.7
	c1.7-34.3,32.9-37.8,32.9-37.8s15,6.7,25.6,13.9C563.3,437.4,554.8,462.3,555,471.4z"/>
<path class="st3" d="M375.3,547.2l-9.1,0.8c-3.9-7.5,1.5-27.4,1.5-27.4h0.7l4.7,0.6L375.3,547.2z"/>
<path class="st18" d="M527.1,414.1c0,0-31.3,3.4-32.9,37.8c0,0-3.2,12-2.4,14.6c0.7,2.6-3.9,7-3.9,7s-6.7,3.7-6.8,7.4
	S463.9,504,463.9,504s-7.1,9.2-23.5,10.1c-16.4,0.9-24,6.6-24,6.6s-8-6.3-13.8-4.4c-5.8,1.9-34.1,4.4-34.1,4.4s-7.5,28.1,1.8,29.9
	c1.1,0.3,93.3,3.7,93.3,3.7s6.3,3.4,15.8-4.9c9.5-8.3,26.2-22.8,26.2-22.8s36.5-34.2,37-34.9c0.6-0.6,12.5-13.3,12.3-22.6
	c-0.2-9.2,8.4-34.1-2.3-41.3S527.1,414.1,527.1,414.1z"/>
<path class="st3" d="M499.2,360.8c0,4.5-0.7,9.2-1.9,13.4c-0.6-0.6-1-1.4-1.4-2.2c-1.8-3.1-3.5-6.2-5.4-9.3
	c-1.4-2.8-3.2-5.3-5.5-7.2c-2.3-1.8-5.5-2.6-8-0.9c-2.2,1.4-3.2,4.4-3.4,7.2c-0.1,2.8,0,5.7,0.2,8.5c0.1,1-0.1,2.2-0.7,3.1
	c-0.8,0.8-1.8,1.3-3,1.3l-3.4,0.5c-1.3,0.5-2.6-0.3-3.1-1.7c0,0,0,0,0-0.1c-2.8-5.8-4.8-13-10.1-15.9c-3.3-1.7-7.6-1.7-9.7-4.9
	c-1.5-2.3-1.3-5.3-0.8-8.1c0.5-3.1,1.1-6.2,2.1-9.2c0.6-2.1,1.9-6.3-1-6.7c-2.1-0.3-4.8,2.2-5.8,3.9c-1,1.7-1.3,4-2.1,6.1
	c-1.4,3.4-3.9,6.1-6.9,7.4c-1.6,0.8-3.2,1.2-4.8,1.4c6.5-22.8,28.1-35.4,48.3-28C488.3,325.1,499.2,341.9,499.2,360.8L499.2,360.8z"
	/>
<path class="st18" d="M438.1,331.4c-1,1.8-1.3,4-2.1,5.9c-1.4,3.4-3.9,6.1-6.9,7.4c-3.1,1.3-6.4,1.9-9.6,1.9
	c-5.4,0.1-11.3-0.8-14.7-5.3c2.5-2.2,4.1-5.4,4.6-9c0.3-2.7-0.1-5.8,1.4-8.1c0.7-1,1.6-1.8,2.6-2.5c5.9-4.6,10.6-11,16.1-16.5
	c5.4-5.4,11.8-10.2,19.1-10.5c9.7-0.4,18.2,7.4,27.8,8.9c3,0.5,5.9,0.3,8.9,1.2c3.2,1.2,6.3,2.8,9,5.2c2.5,1.7,4.7,3.7,6.4,6.2
	c1.3,2.2,2.2,4.6,2.6,7.1c1.3,5.3,2.1,10.8,2.3,16.4c0.2,5.8,0,11.6,0.6,17.4s2.2,11.6,5.7,15.9c-2.5,0.9-5.1,1.5-7.7,2.1
	c-1.6,0.4-3.4,0.3-4.9-0.4c-1.3-0.9-2.3-2.2-3-3.7l-5.4-9.3c-1.4-2.8-3.2-5.3-5.5-7.2c-2.3-1.8-5.5-2.6-8-0.9
	c-2.2,1.4-3.2,4.4-3.4,7.2c-0.1,2.8,0,5.7,0.2,8.5c0.1,1-0.1,2.2-0.7,3.1c-0.8,0.8-1.8,1.3-3,1.3l-3.4,0.5c-1.3,0.5-2.6-0.3-3.1-1.7
	c0,0,0,0,0-0.1c-2.8-5.8-4.8-13-10.1-15.9c-3.3-1.7-7.6-1.7-9.7-4.9c-1.5-2.3-1.3-5.3-0.8-8.1c0.5-3.1,1.1-6.2,2.1-9.2
	c0.6-2.1,1.9-6.3-1-6.8C442,327.1,439.1,329.6,438.1,331.4z"/>
<path class="st3" d="M528.2,444.1c7.1,0.5,14.2,1.7,20.8-0.9c-5.6-2.2-11.7-0.8-17.5-1.4c-4.7-0.5-9.5-2.3-14-1
	c-1.9,0.5-8.9,4.3-8.4,6.8C515.1,444.5,521.7,443.3,528.2,444.1z"/>
<path class="st3" d="M509.6,461.4c1.5-0.1,3,0,4.3,0.5c5.2,1.4,10.6,2.1,16.1,1.9c4.1,0,8.5-0.6,11.6-3.9L509.6,461.4z"/>
<path class="st3" d="M487.1,501.8c4.9,2.6,10.3,3.6,15.7,3.2c5.4-0.4,10.6-1.5,15.7-3.5c2.3-0.8,4.8-1.7,6.2-4L487.1,501.8z"/>
<path class="st3" d="M537.5,507.5c10.7,7,22.6,11.1,34.7,12.3c-6.2-2.8-12.4-5.4-18.7-8c-6.4-2.6-13-4.5-19.7-5.9
	C535.3,506,536.4,506.7,537.5,507.5z"/>
<path class="st3" d="M554.8,500.1c2.2,0.4,4.3,0.5,6.5,0.4c1.1,0,2.5-0.1,3.2-1.3c-4.9,0.3-9.7-1.2-14.5-2.5
	c-1.4-0.4-3.8-1.2-4.9-0.3C547.1,498.2,552,499.5,554.8,500.1z"/>
<path class="st3" d="M586.1,555.2c2.6,5,5.1,10.1,8.7,14.2c2.1,2.3,4.2,4.4,6.5,6.3c-4.2-12.3-8.5-24.5-15.3-35.2
	c-1.7-2.7-4.2-6.6-7.4-7c-0.9,3,1.4,8.3,2.4,11.1C582.5,548.3,584.1,551.9,586.1,555.2z"/>
<path class="st3" d="M459.5,524.1c-0.2,2.1-0.3,4.4,0.7,6.1c0.6,0.8,1.3,1.4,2.2,1.7c-0.6-0.1-1.1-6.2-1.3-7.1c-0.2-1.7,0-4.9-1-6.1
	C459.8,520.4,459.7,522.3,459.5,524.1z"/>
<path class="st3" d="M465.4,521.7c0.8,3.6,2.8,6.8,5.7,8.8c-2.1-2.8-2.6-6.5-4.3-9.6c-0.6-1-1.3-2.3-2.3-2.6
	C464.7,519.5,465.1,520.6,465.4,521.7z"/>
<path class="st3" d="M460.4,484.5c-3.4,2.3-7.5,2.8-11.3,1.7c-0.9-0.3-2.8-1.3-2.4-2.7c0.5-1.4,2.8-0.4,3.8-0.3l4.9,0.6
	C456.4,484,459.7,485,460.4,484.5z"/>
<path class="st3" d="M443.7,493.7c2.3-0.4,4.4,1.5,6.6,2.5c2.4,0.9,5,1.3,7.5,1.2c1.3,0,2.7-0.1,3.5-1.3
	C455.4,494.6,449.8,492.7,443.7,493.7z"/>
<polygon class="st17" points="471.8,416.1 472.3,416.1 475,427.4 471.8,431.3 "/>
<g class="st20">
	<path d="M410.2,326c-0.3,1.8-0.6,3.7-0.6,5.7c0.1-0.6,0.2-1.2,0.3-1.8C410.1,328.4,410.1,327.1,410.2,326z"/>
	<path d="M444.1,327.4c1.1,0.1,1.9,1.2,1.9,2.5v0.1c0.6-2.2,0.8-4.8-1.5-5.2c-2.1-0.3-4.8,2.2-5.8,3.9c-1,1.7-1.3,4-2.1,6.1
		c-1.4,3.4-3.9,6.1-6.9,7.4c-3.1,1.3-6.4,1.9-9.6,1.9c-4.8,0.1-10.1-0.6-13.7-4.3c-0.5,0.5-0.9,1-1.4,1.4c3.4,4.6,9.3,5.6,14.7,5.3
		c3.3,0,6.5-0.6,9.6-1.9s5.6-4,7.1-7.4c0.7-1.9,0.9-4.3,2.1-5.9C439.3,329.5,442.1,327.1,444.1,327.4z"/>
	<path d="M504.3,372.4c-1.6,0.4-3.4,0.3-4.9-0.4c-1.3-0.9-2.3-2.2-3-3.7c-1.8-3.1-3.5-6.2-5.4-9.3c-1.4-2.8-3.2-5.3-5.5-7.2
		c-2.3-1.8-5.5-2.6-8-0.9c-2.2,1.4-3.2,4.4-3.4,7.2c0,0.1,0,0.3,0,0.4c0.5-2.1,1.5-3.9,3.1-5c2.4-1.7,5.7-0.9,8,0.9
		c2.2,2.1,4,4.5,5.5,7.2c1.8,3.1,3.5,6.2,5.4,9.3c0.7,1.5,1.7,2.7,3,3.7c1.6,0.8,3.3,0.9,4.9,0.4c2.6-0.4,5.2-1.2,7.7-2.1
		c-0.5-0.6-0.9-1.3-1.4-1.9C508.4,371.5,506.3,372.1,504.3,372.4z"/>
	<path d="M473.6,369.6c-0.8,0.8-1.8,1.3-3,1.3l-3.4,0.5c-1.3,0.5-2.6-0.3-3.1-1.7c0,0,0,0,0-0.1c-2.8-5.8-4.8-13-10.1-15.9
		c-3.3-1.7-7.6-1.7-9.7-4.9c-1-2.1-1.5-4.4-1-6.7c0,0.4-0.1,0.8-0.2,1.2c-0.5,2.7-0.6,5.8,0.8,8.1c2.2,3.4,6.5,3.2,9.7,4.9
		c5.4,2.8,7.3,10.1,10.1,15.9c0.2,0.8,0.7,1.3,1.3,1.8c0.6,0.3,1.3,0.3,1.8,0.1l3.4-0.5c1.1,0,2.2-0.5,3-1.3
		c0.6-0.9,0.8-1.9,0.7-3.1l0,0C473.9,369.3,473.7,369.5,473.6,369.6z"/>
</g>
<g id="STYLE_COLOR">
	<path class="st21" d="M194.6,43.4H86.3c-4.9,0-8.9,4.3-8.9,9.4l0,0v10.7l61.1,20.1l64.9-20.1V52.8
		C203.5,47.7,199.5,43.4,194.6,43.4z"/>
	<path class="st22" d="M213.9,146.9c0.9-3.1,1.7-6.2,2.2-9.4c0-1.5-0.8-3.1-2.1-3.9l0,0h-0.1l0,0l-68.2-41.4
		c-0.3-0.3-0.6-0.4-0.9-0.5l0,0c-2.6-1.4-5.8-1.4-8.4,0l0,0c-0.3,0.1-0.6,0.4-0.9,0.5L67,133.7l0,0h-0.1l0,0
		c-1.3,0.8-2.1,2.3-2.1,3.9c0.6,3.2,1.3,6.3,2.2,9.4l72.5,56.4L213.9,146.9z"/>
	<polygon class="st23" points="165.7,63.7 121.6,63.7 108.8,83.8 121.6,104 165.7,144.2 203.5,144.2 203.5,104 	"/>
	<rect x="77.4" y="63.7" class="st24" width="44.1" height="40.3"/>
	<rect x="165.7" y="63.7" class="st25" width="37.8" height="40.3"/>
	<polygon class="st21" points="165.7,144.2 121.6,104 77.4,104 77.4,144.2 121.6,184.6 189.8,196.5 	"/>
	<line class="st26" x1="77.6" y1="63.7" x2="203.5" y2="63.7"/>
	<rect x="121.5" y="104" class="st24" width="44.1" height="40.3"/>
	<rect x="77.4" y="144.2" class="st27" width="44.1" height="40.3"/>
	<rect x="165.7" y="144.2" class="st24" width="37.8" height="40.3"/>
	<path class="st28" d="M141.6,199.5l-74.3-57.8l3.1-5.8c0,0,67.7,41.2,68.7,41.7c0.9,0.4,1.8,0.4,2.6-0.1
		c0.9-0.5,68.9-41.8,68.9-41.8l3.1,5.8L141.6,199.5z"/>
	<path class="st29" d="M214,141.4L214,141.4L214,141.4L214,141.4L145.6,183c-2.7,1.9-6.3,2.2-9.2,0.6l23.8,33.9l52.1,12.1l0,0
		c2.5-1.9,3.9-4.9,3.9-8.1v-84C216,139.2,215.2,140.6,214,141.4z"/>
	<path class="st30" d="M216,221.6v-4.9l-62.9-38.2l-7.6,4.6c-2.7,1.9-6.3,2.2-9.2,0.6l23.8,33.9l52.1,12.1l0,0
		C214.6,227.7,216,224.8,216,221.6z"/>
	<path class="st3" d="M215.7,224.1l-68.9-41.8l-1.3,0.8c-2.7,1.9-6.3,2.2-9.2,0.6l23.8,33.9l52.1,12.1l0,0
		C213.9,228.3,215.2,226.3,215.7,224.1z"/>
	<path class="st23" d="M67,141.5L67,141.5L67,141.5l-0.2-0.3c-1.3-0.8-1.9-2.2-1.9-3.7v84c0,5.6,4.2,10.1,9.5,10.1l0,0h132.4
		c0.8,0,1.6-0.1,2.3-0.4c0.3-0.1,0.8-0.3,1.1-0.4c0.1,0,0.2,0,0.3-0.1c0.6-0.3,1-0.5,1.5-0.9c0.1-0.1,0.2-0.1,0.2-0.3L67,141.5z"/>
	<path class="st3" d="M127.9,195.7V86c0-4.9-3.8-8.9-8.4-8.9H77.6V104l0,0v23.2L67,133.7l0,0h-0.1l0,0c-1.3,0.8-2.1,2.3-2.1,3.9l0,0
		l0,0v67.1h54.6C124.1,204.8,127.9,200.8,127.9,195.7z"/>
	<path class="st31" d="M121.6,202.4V92.7c0-4.9-3.8-8.9-8.4-8.9H77.6V104l0,0v23.2L67,133.7l0,0h-0.1l0,0c-1.3,0.8-2.1,2.3-2.1,3.9
		l0,0l0,0v74h48.3C117.7,211.5,121.5,207.5,121.6,202.4z"/>
	<path class="st31" d="M121.6,189V92.7c0-4.9-3.8-8.9-8.4-8.9H77.6V104l0,0v23.2L67,133.7l0,0h-0.1l0,0c-1.3,0.8-2.1,2.3-2.1,3.9
		l0,0l0,0V198h48.3C117.7,198.1,121.5,193.9,121.6,189z"/>
	<path class="st31" d="M115.2,189V92.7c0-4.9-3.8-8.9-8.4-8.9H77.6V104l0,0v23.2L67,133.7l0,0h-0.1l0,0c-1.3,0.8-2.1,2.3-2.1,3.9
		l0,0l0,0V198h42C111.5,198.1,115.2,193.9,115.2,189z"/>
	<path id="Back_Plate" class="st24" d="M22.8,83.8h84c4.7,0,8.4,4,8.4,8.9v89.6c0,4.9-3.8,8.9-8.4,8.9l0,0h-84c-4.7,0-8.4-4-8.4-8.9
		l0,0V92.7C14.4,87.8,18.1,83.8,22.8,83.8L22.8,83.8z"/>
	<path class="st32" d="M38.8,120.5c2.3-5,5.8-9.3,10.4-12.1c5-3.1,10.7-4.5,16.4-4.4c5.4-0.1,10.6,1.3,15.3,4.1
		c4.3,2.7,7.9,6.8,10,11.6c2.4,5.3,3.6,11.2,3.5,17.2c0.1,6.2-1.1,12.4-3.6,17.9c-2.3,5-5.9,9.2-10.4,12c-4.8,3-10.3,4.4-15.8,4.3
		c-5.5,0.1-10.8-1.3-15.6-4.3c-4.3-2.7-8-6.8-10.3-11.6c-2.4-5.3-3.6-11.1-3.5-16.9C35.1,132.2,36.4,126.2,38.8,120.5z M49.8,149.1
		c1.1,3.2,3.2,5.9,5.8,8c2.6,1.9,5.8,3,9.1,3c3.4,0.1,6.8-0.9,9.7-3c2.6-2.1,4.6-4.8,5.7-8c1.3-3.6,1.8-7.4,1.8-11.2
		c0-3.9-0.6-7.7-1.7-11.4c-1-3.2-3-6.2-5.5-8.4c-2.7-2.2-6.2-3.4-9.6-3.2c-3.3-0.1-6.6,0.9-9.3,3c-2.6,2.1-4.7,4.9-5.9,8.1
		C47.1,133.5,47.1,141.7,49.8,149.1L49.8,149.1z"/>
	<rect x="14.4" y="30" class="st26" width="201.7" height="215"/>
</g>
<text transform="matrix(1 0 0 1 536 -38)" style="font-family:'ArialMT'; font-size:12px;">Lorem ipsum</text>
<path class="st26" d="M754.4,318.3L754.4,318.3 M754.4,318.3L754.4,318.3"/>
<path class="st33" d="M760.9,159.1c9.3,0,16.9,8.1,16.9,18v5.2l-23.5,17.9L674.5,259l-79.8-59.3v118.7h-6c-9.3,0-16.9-8.1-16.9-18
	V177.1c0-9.9,7.6-18,16.9-18l85.9,68L760.9,159.1L760.9,159.1L760.9,159.1z"/>
<linearGradient id="SVGID_3_" gradientUnits="userSpaceOnUse" x1="-4305.3599" y1="-9306.9922" x2="-2318.4263" y2="-9306.9922" gradientTransform="matrix(5.539683e-02 0 0 5.539683e-02 858.1621 708.6554)">
	<stop  offset="0" style="stop-color:#F8F6EF"/>
	<stop  offset="1" style="stop-color:#E7E4D6"/>
</linearGradient>
<path class="st34" d="M588.7,159.1l85.9,68l86.4-68H588.7z"/>
<path class="st35" d="M594.7,199.6v118.7h159.7V200.2L674.5,259L594.7,199.6z"/>
<path class="st36" d="M594.7,318.3l79.8-59.3l-0.4-0.3L594.7,317V318.3z"/>
<path class="st37" d="M754.4,200.2l0,118.1L674.5,259L754.4,200.2z"/>
<path class="st38" d="M777.8,182.3l0,118c-0.4,13.1-5.7,17.8-23.4,18l0-118.1L777.8,182.3L777.8,182.3L777.8,182.3z"/>
<linearGradient id="SVGID_4_" gradientUnits="userSpaceOnUse" x1="-4305.3599" y1="-9306.9922" x2="-2318.4263" y2="-9306.9922" gradientTransform="matrix(5.539683e-02 0 0 5.539683e-02 858.1621 708.6554)">
	<stop  offset="0" style="stop-color:#F8F6EF"/>
	<stop  offset="1" style="stop-color:#E7E4D6"/>
</linearGradient>
<path class="st39" d="M588.7,159.1l85.9,68l86.4-68H588.7z"/>
<linearGradient id="SVGID_5_" gradientUnits="userSpaceOnUse" x1="-4305.3599" y1="-9306.9922" x2="-2318.4263" y2="-9306.9922" gradientTransform="matrix(5.539683e-02 0 0 5.539683e-02 858.1621 708.6554)">
	<stop  offset="0" style="stop-color:#F8F6EF"/>
	<stop  offset="1" style="stop-color:#E7E4D6"/>
</linearGradient>
<path class="st40" d="M588.7,159.1l85.9,68l86.4-68H588.7z"/>
<linearGradient id="SVGID_6_" gradientUnits="userSpaceOnUse" x1="-4305.3599" y1="-9306.9922" x2="-2318.4263" y2="-9306.9922" gradientTransform="matrix(5.539683e-02 0 0 5.539683e-02 858.1621 708.6554)">
	<stop  offset="0" style="stop-color:#F8F6EF"/>
	<stop  offset="1" style="stop-color:#E7E4D6"/>
</linearGradient>
<path class="st41" d="M588.7,159.1l85.9,68l86.4-68H588.7z"/>
<linearGradient id="SVGID_7_" gradientUnits="userSpaceOnUse" x1="-4305.3599" y1="-9306.9922" x2="-2318.4263" y2="-9306.9922" gradientTransform="matrix(5.539683e-02 0 0 5.539683e-02 858.1621 708.6554)">
	<stop  offset="0" style="stop-color:#F8F6EF"/>
	<stop  offset="1" style="stop-color:#E7E4D6"/>
</linearGradient>
<path class="st42" d="M588.7,159.1l85.9,68l86.4-68H588.7z"/>
<linearGradient id="SVGID_8_" gradientUnits="userSpaceOnUse" x1="-4305.3599" y1="-9306.9922" x2="-2318.4263" y2="-9306.9922" gradientTransform="matrix(5.539683e-02 0 0 5.539683e-02 858.1621 708.6554)">
	<stop  offset="0" style="stop-color:#F8F6EF"/>
	<stop  offset="1" style="stop-color:#E7E4D6"/>
</linearGradient>
<path class="st43" d="M588.7,159.1l85.9,68l86.4-68H588.7z"/>
<linearGradient id="SVGID_9_" gradientUnits="userSpaceOnUse" x1="-4305.3599" y1="-9306.9922" x2="-2318.4263" y2="-9306.9922" gradientTransform="matrix(5.539683e-02 0 0 5.539683e-02 858.1621 708.6554)">
	<stop  offset="0" style="stop-color:#F8F6EF"/>
	<stop  offset="1" style="stop-color:#E7E4D6"/>
</linearGradient>
<path class="st44" d="M588.7,159.1l85.9,68l86.4-68H588.7z"/>
<linearGradient id="SVGID_10_" gradientUnits="userSpaceOnUse" x1="-4305.3599" y1="-9306.9922" x2="-2318.4263" y2="-9306.9922" gradientTransform="matrix(5.539683e-02 0 0 5.539683e-02 858.1621 708.6554)">
	<stop  offset="0" style="stop-color:#F8F6EF"/>
	<stop  offset="1" style="stop-color:#E7E4D6"/>
</linearGradient>
<path class="st45" d="M588.7,159.1l85.9,68l86.4-68H588.7z"/>
<path class="st46" d="M588.7,159.1l85.9,68l86.4-68H588.7z"/>
</svg>
